<svg width="24" height="24" viewBox="0 0 24 24" fill="none" xmlns="http://www.w3.org/2000/svg">
<path d="M7 4.18884C7.55 4.18884 8 4.63884 8 5.18884C8 5.73884 7.55 6.18884 7 6.18884H6V18.1888H7C7.55 18.1888 8 18.6388 8 19.1888C8 19.7388 7.55 20.1888 7 20.1888H5C4.45 20.1888 4 19.7388 4 19.1888V5.18884C4 4.63884 4.45 4.18884 5 4.18884H7ZM16.6113 7.37048C17.0623 7.05176 17.686 7.16176 18.0039 7.61365L20.8184 11.6136C21.0682 11.9676 21.0597 12.4425 20.7998 12.7885L17.7998 16.7885C17.6038 17.0504 17.303 17.1888 16.999 17.1888C16.7911 17.1888 16.5803 17.1235 16.4004 16.9886C15.9584 16.6576 15.8692 16.0302 16.2002 15.5892L18.001 13.1888H10C9.44807 13.1888 9.00012 12.7417 9 12.1888C9 11.6358 9.448 11.1888 10 11.1888H18C18.03 11.1889 18.056 11.2034 18.0859 11.2064L16.3682 8.76404C16.0502 8.31304 16.1593 7.68848 16.6113 7.37048Z" fill="currentColor"/>
<mask id="mask0_261_1605" style="mask-type:luminance" maskUnits="userSpaceOnUse" x="4" y="4" width="18" height="17">
<path d="M7 4.18884C7.55 4.18884 8 4.63884 8 5.18884C8 5.73884 7.55 6.18884 7 6.18884H6V18.1888H7C7.55 18.1888 8 18.6388 8 19.1888C8 19.7388 7.55 20.1888 7 20.1888H5C4.45 20.1888 4 19.7388 4 19.1888V5.18884C4 4.63884 4.45 4.18884 5 4.18884H7ZM16.6113 7.37048C17.0623 7.05176 17.686 7.16176 18.0039 7.61365L20.8184 11.6136C21.0682 11.9676 21.0597 12.4425 20.7998 12.7885L17.7998 16.7885C17.6038 17.0504 17.303 17.1888 16.999 17.1888C16.7911 17.1888 16.5803 17.1235 16.4004 16.9886C15.9584 16.6576 15.8692 16.0302 16.2002 15.5892L18.001 13.1888H10C9.44807 13.1888 9.00012 12.7417 9 12.1888C9 11.6358 9.448 11.1888 10 11.1888H18C18.03 11.1889 18.056 11.2034 18.0859 11.2064L16.3682 8.76404C16.0502 8.31304 16.1593 7.68848 16.6113 7.37048Z" fill="white"/>
</mask>
<g mask="url(#mask0_261_1605)">
<rect y="0.188843" width="24" height="24" fill="currentColor"/>
</g>
</svg>
