<svg width="37" height="36" viewBox="0 0 37 36" fill="none" xmlns="http://www.w3.org/2000/svg">
<path fill-rule="evenodd" clip-rule="evenodd" d="M8.11547 13.8209C8.11547 7.88171 12.7287 3 18.5 3C24.2712 3 28.8845 7.88172 28.8845 13.8209V14.8041C28.8845 15.7858 29.1625 16.7425 29.6795 17.5536C29.6795 17.5536 29.6795 17.5536 29.6795 17.5536L31.213 19.9593C32.9708 22.7166 31.6596 26.5147 28.5172 27.411C28.5172 27.411 28.5172 27.411 28.5172 27.411C21.9591 29.2816 15.0409 29.2816 8.48273 27.411C5.3405 26.5147 4.02927 22.7166 5.78693 19.9593L7.32046 17.5536C7.83744 16.7425 8.11547 15.7858 8.11547 14.8041V13.8209ZM18.5 5.09302C13.948 5.09302 10.1926 8.96358 10.1926 13.8209V14.8041C10.1926 16.1822 9.80277 17.5322 9.06815 18.6847L7.5346 21.0905C6.49076 22.728 7.31825 24.9036 9.04847 25.3971C15.2367 27.1622 21.7633 27.1622 27.9515 25.3971C29.6818 24.9036 30.5092 22.728 29.4654 21.0905L27.9318 18.6847C27.1973 17.5323 26.8073 16.1822 26.8073 14.8041V13.8209C26.8073 8.96358 23.0519 5.09302 18.5 5.09302Z" fill="black"/>
<path fill-rule="evenodd" clip-rule="evenodd" d="M11.9041 26.7875C12.4412 26.5847 13.0398 26.859 13.2411 27.4002C13.9903 29.4146 16.0391 30.907 18.5 30.907C20.9608 30.907 23.0097 29.4146 23.7589 27.4002C23.9602 26.859 24.5588 26.5847 25.0959 26.7875C25.633 26.9903 25.9052 27.5935 25.704 28.1347C24.6391 30.9978 21.7929 33 18.5 33C15.207 33 12.3609 30.9978 11.296 28.1347C11.0947 27.5935 11.367 26.9903 11.9041 26.7875Z" fill="black"/>
</svg>
