<svg width="61" height="60" viewBox="0 0 61 60" fill="none" xmlns="http://www.w3.org/2000/svg">
<rect x="1.26691" y="0.615542" width="58.7689" height="58.7689" rx="29.3845" fill="white"/>
<rect x="1.26691" y="0.615542" width="58.7689" height="58.7689" rx="29.3845" stroke="black" stroke-width="1.23108"/>
<path fill-rule="evenodd" clip-rule="evenodd" d="M39.6517 24C39.6517 28.9706 35.6223 33 30.6517 33C25.6812 33 21.6517 28.9706 21.6517 24C21.6517 19.0294 25.6812 15 30.6517 15C35.6223 15 39.6517 19.0294 39.6517 24ZM36.6517 24C36.6517 27.3137 33.9654 30 30.6517 30C27.338 30 24.6517 27.3137 24.6517 24C24.6517 20.6863 27.338 18 30.6517 18C33.9654 18 36.6517 20.6863 36.6517 24Z" fill="black"/>
<path d="M30.6517 37.5C20.9402 37.5 12.6656 43.2426 9.51367 51.2881C10.2815 52.0505 11.0904 52.7717 11.9367 53.4481C14.2838 46.0615 21.6468 40.5 30.6517 40.5C39.6567 40.5 47.0197 46.0615 49.3668 53.4481C50.2131 52.7718 51.022 52.0506 51.7898 51.2881C48.6378 43.2426 40.3633 37.5 30.6517 37.5Z" fill="black"/>
</svg>
